Coordinates
version=1
nRows=22
nColumns=24
inDegrees=yes

Units are S.I. units (second, meters, Newtons, ...)
Angles are in degrees.

endheader
time	pelvis_tilt	pelvis_list	pelvis_rotation	pelvis_tx	pelvis_ty	pelvis_tz	hip_flexion_r	hip_adduction_r	hip_rotation_r	knee_angle_r	ankle_angle_r	subtalar_angle_r	mtp_angle_r	hip_flexion_l	hip_adduction_l	hip_rotation_l	knee_angle_l	ankle_angle_l	subtalar_angle_l	mtp_angle_l	lumbar_extension	lumbar_bending	lumbar_rotation
      4.33000000	     -9.13351278	     -2.36964952	     -3.25071831	     -1.48420004	     -0.00303420	     -0.61574051	      4.86841660	      6.30059193	     -7.43551346	     -7.08326344	      4.69741768	     -6.42606204	      5.86949119	     33.23761529	     -7.27966984	    -16.21819823	    -47.88141668	     -1.25408940	    -15.05260451	     -1.39728609	      6.33185058	      5.52359044	      2.24208052
      4.33500000	     -9.32449460	     -2.35173796	     -3.40994695	     -1.47965087	     -0.00357264	     -0.61531278	      4.74933363	      6.31583402	     -7.35303335	     -7.04743996	      4.88261700	     -6.33503536	      5.94678220	     33.57635495	     -7.27751138	    -16.67281529	    -46.33921036	     -1.03465745	    -14.95313343	     -1.64049478	      6.44676791	      5.50544641	      2.46824322
      4.34000000	     -9.46382326	     -2.32162046	     -3.47378538	     -1.47504079	     -0.00409361	     -0.61502023	      4.55328678	      6.30455112	     -7.34015011	     -6.97811906	      5.08207409	     -6.28879263	      5.99314092	     33.83406564	     -7.18673099	    -17.03998378	    -44.71522801	     -0.81464263	    -14.74859330	     -1.78846660	      6.51866479	      5.45382760	      2.55820779
      4.34500000	     -9.49145466	     -2.29008540	     -3.64126527	     -1.47042178	     -0.00447182	     -0.61463511	      4.24913049	      6.28346358	     -7.32115766	     -6.93625442	      5.29130481	     -6.04139764	      6.10595233	     33.90187626	     -7.16090039	    -17.59960537	    -43.02133403	     -0.52212367	    -14.42827855	     -2.16443986	      6.46300849	      5.41212425	      2.82667322
      4.35000000	     -9.52278590	     -2.25707540	     -3.68190971	     -1.46573242	     -0.00491761	     -0.61445715	      3.92495717	      6.24449385	     -7.42534397	     -6.84919348	      5.51465272	     -5.83678232	      6.32198696	     33.96888460	     -7.02359660	    -18.00135184	    -41.28112046	     -0.14949984	    -13.96582899	     -2.73752016	      6.42806000	      5.35286456	      2.91599256
      4.35500000	     -9.70109033	     -2.25776368	     -3.79310231	     -1.46110054	     -0.00554955	     -0.61418919	      3.78470080	      6.26278362	     -7.40985311	     -6.81027693	      5.71863318	     -5.71454526	      6.39545903	     34.17025352	     -6.97256656	    -18.46332064	    -39.49723280	      0.07993552	    -13.46787778	     -2.74213214	      6.53766606	      5.34654360	      3.08041101
      4.36000000	     -9.80211501	     -2.25186882	     -3.88881809	     -1.45644177	     -0.00610020	     -0.61395346	      3.55580535	      6.26334085	     -7.45223987	     -6.76433451	      5.92187758	     -5.53334766	      6.48362229	     34.24500385	     -6.89483848	    -18.94726487	    -37.64699895	      0.31929245	    -12.81599143	     -2.63880894	      6.56357051	      5.32399252	      3.21681742
      4.36500000	     -9.88275495	     -2.24563879	     -3.97540852	     -1.45176749	     -0.00664258	     -0.61374296	      3.30543672	      6.25822337	     -7.53016597	     -6.72036389	      6.12269645	     -5.32275961	      6.59955484	     34.26690345	     -6.80124187	    -19.44503820	    -35.74963713	      0.54091103	    -12.04817938	     -2.37821815	      6.56841237	      5.29627220	      3.34424345
      4.37000000	     -9.97036694	     -2.24200963	     -4.05397308	     -1.44705374	     -0.00721750	     -0.61356893	      3.05546926	      6.25202217	     -7.61064399	     -6.66853502	      6.32874057	     -5.09723927	      6.73795663	     34.27165510	     -6.69513565	    -19.94593044	    -33.82211992	      0.75204911	    -11.16844440	     -1.94229360	      6.58591985	      5.27299425	      3.45324409
      4.37500000	     -9.91985645	     -2.19604879	     -4.09405126	     -1.44231810	     -0.00761391	     -0.61345942	      2.64967930	      6.17820032	     -7.78382039	     -6.59110550	      6.50074070	     -4.81646809	      7.15439211	     34.06903989	     -6.49153843	    -20.40198675	    -31.75504083	      0.56271701	    -10.40913954	     -0.37457307	      6.45459911	      5.18583064	      3.53609469
      4.38000000	    -10.13172588	     -2.24170707	     -4.17975060	     -1.43757897	     -0.00838776	     -0.61331245	      2.54370501	      6.23531240	     -7.86700763	     -6.56446620	      6.67976418	     -4.64525287	      7.24884041	     34.20563753	     -6.44160918	    -20.93363929	    -29.87210924	      0.83705070	     -9.27152697	      0.17261048	      6.60796119	      5.22032211	      3.61946887
      4.38500000	    -10.05116375	     -2.17776930	     -4.23919161	     -1.43270630	     -0.00878849	     -0.61324323	      2.08940331	      6.13305119	     -7.97799928	     -6.47749122	      6.86991864	     -4.35502461	      7.61590000	     33.91371611	     -6.20655526	    -21.43691852	    -27.75275943	      0.51799444	     -8.45288028	      2.41922338	      6.46406036	      5.12236160	      3.72210504
      4.39000000	    -10.23078593	     -2.19721733	     -4.29735513	     -1.42791480	     -0.00948990	     -0.61318526	      1.95359970	      6.14771670	     -8.10645305	     -6.46282069	      7.02253377	     -4.14565365	      7.68594432	     33.99583763	     -6.09082793	    -21.95386456	    -25.89375541	      0.73096529	     -7.17769718	      3.01867965	      6.58738995	      5.12204628	      3.76791654
      4.39500000	    -10.19871035	     -2.11450354	     -4.35804792	     -1.42300895	     -0.00991948	     -0.61314859	      1.57948780	      6.02093652	     -8.25720241	     -6.42432418	      7.19734207	     -3.84874775	      8.10700760	     33.74097225	     -5.82381669	    -22.44484446	    -23.79120706	      0.20922713	     -6.39791123	      6.00146333	      6.49723633	      5.00578250	      3.87912287
      4.40000000	    -10.20570261	     -2.01643926	     -4.41550450	     -1.41808489	     -0.01035430	     -0.61319551	      1.25617806	      5.87418516	     -8.36890409	     -6.41394484	      7.39386905	     -3.54684925	      8.15939265	     33.58205081	     -5.53132046	    -22.92402106	    -21.93834519	      0.37795808	     -5.24951452	      6.53338410	      6.45757660	      4.87894358	      3.96262151
      4.40500000	    -10.10928209	     -1.86754549	     -4.39297791	     -1.41314428	     -0.01062870	     -0.61332527	      0.82375237	      5.64919963	     -8.60651244	     -6.39341323	      7.57784923	     -3.15632994	      8.52098843	     33.28204464	     -5.11595601	    -23.26270084	    -19.97460415	     -0.09099198	     -4.57138672	      8.88114785	      6.30793753	      4.67603827	      3.95279964
      4.41000000	    -10.14105096	     -1.69744490	     -4.47024222	     -1.40824896	     -0.01100859	     -0.61338468	      0.57111944	      5.41320280	     -8.66423128	     -6.45123207	      7.78017069	     -2.84827418	      8.59144436	     33.17737329	     -4.75810721	    -23.69287634	    -18.29710476	      0.01074642	     -3.61616684	      9.35044345	      6.28929956	      4.47997589	      4.07012820
      4.41500000	    -10.09632435	     -1.54808168	     -4.41480043	     -1.40330825	     -0.01133295	     -0.61358231	      0.21373961	      5.18104854	     -8.88830149	     -6.47172398	      7.96759570	     -2.43171658	      8.86382193	     33.01800073	     -4.34008288	    -23.90578313	    -16.66646419	     -0.22070361	     -2.98214093	     10.83312234	      6.20268458	      4.27124309	      3.99467734
      4.42000000	    -10.12614800	     -1.37400512	     -4.42673440	     -1.39846986	     -0.01170294	     -0.61368124	     -0.01110422	      4.93892063	     -8.99382598	     -6.57546602	      8.13147387	     -2.21480727	      8.90138681	     32.98305354	     -3.95453684	    -24.14169262	    -15.25966954	     -0.22800980	     -2.29443959	     11.07102703	      6.17210051	      4.04104232	      4.04910693
      4.42500000	    -10.08482245	     -1.21632822	     -4.38879033	     -1.39354730	     -0.01207165	     -0.61390037	     -0.31169299	      4.69268001	     -9.16983924	     -6.70603478	      8.34656194	     -1.86868478	      8.96222072	     32.88822975	     -3.55229941	    -24.23725845	    -13.97799732	     -0.19737600	     -1.72689808	     11.43286365	      6.07912409	      3.82626228	      4.02859749
      4.43000000	    -10.18299894	     -1.09963032	     -4.32664543	     -1.38864852	     -0.01261998	     -0.61414912	     -0.46106034	      4.51046062	     -9.20595210	     -6.83706010	      8.47658020	     -1.78215244	      8.98723841	     32.99550277	     -3.19660638	    -24.18163216	    -12.88303766	     -0.22257294	     -1.33463960	     11.53161737	      6.13550216	      3.65637207	      3.93754570
      4.43500000	    -10.07865347	     -0.92765424	     -4.32267370	     -1.38364031	     -0.01294964	     -0.61432834	     -0.79984699	      4.23440664	     -9.41901487	     -7.03455368	      8.72237838	     -1.31988984	      9.01886061	     32.84534607	     -2.81720920	    -24.18857140	    -11.86158540	     -0.24407471	     -0.94905247	     11.78906576	      5.98223734	      3.41584607	      3.98230611
